# xmcd
#
# Track frame offsets:
#	150
#	11752
#	27266
#	45577
#	63641
#
# Disc length: 1079 seconds
#
# Revision: 1
# Processed by: cddbd v1.4PL0 Copyright (c) Steve Scherf et al.
# Submitted via: audiograbber 1.81.03
#
DISCID=3b043505
DTITLE=Lassiter - Lassiter
DYEAR=2001
DGENRE=Country
TTITLE0=Morgens Nochmal Lieben
TTITLE1=Die Betrügt Auch Ihn
TTITLE2=Ich Küss Dich Heut Morgen
TTITLE3=Ich Sei Ein Sehr Einsamer Mann
TTITLE4=Einmal Noch In Deinem Arm
EXTD=
EXTT0=
EXTT1=
EXTT2=
EXTT3=
EXTT4=
PLAYORDER=
